# File created by Blade
# Date/Time:  Tue Sep 30 19:06:28 2014
#---------------------------------------------------------
:version 1.10
:name HOM
:units
  mass 1.0
  length 1.000000
  angle deg
:documentation
     Acclaim Skeleton File
:root
   axis xyz
   order TX TY TZ RX RY RZ
   position 0.000000 0.000000 0.000000
   orientation 0 0 0
:bonedata
   begin
      id 1
      name Spine_dum
      direction 0.000000 1.000000 0.000000
      length 7.508948
      axis 0.0 0.0 0.0 xyz
   end
   begin
      id 2
      name LeftUpLeg_dum
      direction 1.000000 0.000000 0.000000
      length 3.000560
      axis 0.0 0.0 0.0 xyz
   end
   begin
      id 3
      name RightUpLeg_dum
      direction -1.000000 0.000000 0.000000
      length 3.000560
      axis 0.0 0.0 0.0 xyz
   end
   begin
      id 4
      name Spine
      direction 0.000000 1.000000 0.000000
      length 0.000000
      axis 0.0 0.0 0.0 xyz
      dof rx ry rz
   end
   begin
      id 5
      name Spine_dum1
      direction 0.000000 1.000000 0.000000
      length 13.861154
      axis 0.0 0.0 0.0 xyz
   end
   begin
      id 6
      name Spine_dum2
      direction 0.000000 1.000000 0.000000
      length 8.204781
      axis 0.0 0.0 0.0 xyz
   end
   begin
      id 7
      name Spine_dum3
      direction 0.000000 1.000000 0.000000
      length 8.204781
      axis 0.0 0.0 0.0 xyz
   end
   begin
      id 8
      name Head
      direction 0.000000 1.000000 0.000000
      length 4.527550
      axis 0.0 0.0 0.0 xyz
      dof rx ry rz
   end
   begin
      id 9
      name LeftShoulder
      direction 1.000000 0.000000 0.000000
      length 6.635956
      axis 0.0 0.0 -90.0 xyz
      dof rx ry rz
   end
   begin
      id 10
      name LeftArm
      direction 1.000000 0.000000 0.000000
      length 10.274218
      axis 0.0 0.0 -90.0 xyz
      dof rx ry rz
   end
   begin
      id 11
      name LeftForeArm
      direction 1.000000 0.000000 0.000000
      length 8.522147
      axis 0.0 0.0 -90.0 xyz
      dof ry rz rx
   end
   begin
      id 12
      name LeftHand
      direction 0.000000 0.000000 0.000000
      length 0.000000
      axis 0.0 0.0 -90.0 xyz
      dof rx ry rz
   end
   begin
      id 13
      name LeftHand_dum1
      direction 0.000000 0.000000 0.000000
      length 0.000000
      axis 0.0 0.0 -90.0 xyz
   end
   begin
      id 14
      name LeftHand_dum2
      direction 1.000000 0.000000 0.000000
      length 3.937000
      axis 0.0 0.0 -90.0 xyz
   end
   begin
      id 15
      name LeftHandThumb1
      direction 0.000000 0.000000 1.000000
      length 3.937000
      axis 0.0 0.0 -90.0 xyz
      dof rx rz ry
   end
   begin
      id 16
      name RightShoulder
      direction -1.000000 0.000000 0.000000
      length 6.635956
      axis 0.0 0.0 90.0 xyz
      dof rx ry rz
   end
   begin
      id 17
      name RightArm
      direction -1.000000 0.000000 0.000000
      length 10.274218
      axis 0.0 0.0 90.0 xyz
      dof rx ry rz
   end
   begin
      id 18
      name RightForeArm
      direction -1.000000 0.000000 0.000000
      length 8.522147
      axis 0.0 0.0 90.0 xyz
      dof ry rz rx
   end
   begin
      id 19
      name RightHand
      direction 0.000000 0.000000 0.000000
      length 0.000000
      axis 0.0 0.0 90.0 xyz
      dof rx ry rz
   end
   begin
      id 20
      name RightHand_dum1
      direction 0.000000 0.000000 0.000000
      length 0.000000
      axis 0.0 0.0 90.0 xyz
   end
   begin
      id 21
      name RightHand_dum2
      direction -1.000000 0.000000 0.000000
      length 3.937000
      axis 0.0 0.0 90.0 xyz
   end
   begin
      id 22
      name RightHandThumb1
      direction 0.000000 0.000000 1.000000
      length 3.937000
      axis 0.0 0.0 90.0 xyz
      dof rx rz ry
   end
   begin
      id 23
      name LeftUpLeg
      direction 0.000000 -1.000000 0.000000
      length 16.490845
      axis 0.0 0.0 0.0 xyz
      dof rx ry rz
   end
   begin
      id 24
      name LeftLeg
      direction 0.000000 -1.000000 0.000000
      length 14.556576
      axis 0.0 0.0 0.0 xyz
      dof rx ry rz
   end
   begin
      id 25
      name LeftFoot
      direction 0.000000 -0.258819 0.965926
      length 4.831116
      axis 15.0 0.0 0.0 xyz
      dof rx ry rz
   end
   begin
      id 26
      name LeftToeBase
      direction 0.000000 0.000000 1.000000
      length 2.952750
      axis 0.0 0.0 0.0 xyz
      dof rx ry rz
   end
   begin
      id 27
      name RightUpLeg
      direction 0.000000 -1.000000 0.000000
      length 16.490845
      axis 0.0 0.0 0.0 xyz
      dof rx ry rz
   end
   begin
      id 28
      name RightLeg
      direction 0.000000 -1.000000 0.000000
      length 14.556576
      axis 0.0 0.0 0.0 xyz
      dof rx ry rz
   end
   begin
      id 29
      name RightFoot
      direction 0.000000 -0.258819 0.965926
      length 4.831116
      axis 15.0 0.0 0.0 xyz
      dof rx ry rz
   end
   begin
      id 30
      name RightToeBase
      direction 0.000000 0.000000 1.000000
      length 2.952750
      axis 0.0 0.0 0.0 xyz
      dof rx ry rz
   end
:hierarchy
   begin
      root Spine_dum LeftUpLeg_dum RightUpLeg_dum
      Spine_dum Spine
      LeftUpLeg_dum LeftUpLeg
      RightUpLeg_dum RightUpLeg
      Spine Spine_dum1 Spine_dum2 Spine_dum3
      Spine_dum1 Head
      Spine_dum2 LeftShoulder
      Spine_dum3 RightShoulder
      LeftShoulder LeftArm
      LeftArm LeftForeArm
      LeftForeArm LeftHand
      LeftHand LeftHand_dum1 LeftHand_dum2
      LeftHand_dum1 LeftHandThumb1
      RightShoulder RightArm
      RightArm RightForeArm
      RightForeArm RightHand
      RightHand RightHand_dum1 RightHand_dum2
      RightHand_dum1 RightHandThumb1
      LeftUpLeg LeftLeg
      LeftLeg LeftFoot
      LeftFoot LeftToeBase
      RightUpLeg RightLeg
      RightLeg RightFoot
      RightFoot RightToeBase
   end

# File created by Blade
# Date/Time:  Thu Sep 25 18:48:06 2014
# Frame Rate: 120.000 fps
#------------------------------------------------------
:FULLY-SPECIFIED
:DEGREES
235
root 0.706713 32.604184 1.848417 13.417841 4.099430 -0.111348
Spine -12.846888 4.324002 -0.506652
Head 2.022056 -10.860818 7.086650
LeftShoulder -8.779881 33.258774 6.045665
LeftArm 7.612902 71.126564 -78.682554
LeftForeArm -49.861663 -0.000000 40.785996
LeftHand -25.225730 0.000000 -26.613923
LeftHandThumb1 -26.253704 0.000000 33.147579
RightShoulder -17.175599 -5.664619 -15.299780
RightArm -66.973535 -58.561658 147.406279
RightForeArm 13.910842 -0.000000 48.096867
RightHand -0.896419 -0.000000 24.583162
RightHandThumb1 -24.326973 -0.000000 -32.862282
LeftUpLeg -8.518560 5.018731 4.376834
LeftLeg 1.116273 -0.000000 -0.000000
LeftFoot -12.743899 2.856895 -12.303640
LeftToeBase 10.771748 -0.000000 -0.000000
RightUpLeg -7.651746 -8.996772 -3.558628
RightLeg 3.026959 -0.000000 -0.000000
RightFoot -11.107882 -8.752666 5.139591
RightToeBase 0.718417 -0.000000 -0.000000
236
root 0.707422 32.602797 1.853551 13.403307 4.096010 -0.140371
Spine -12.767896 4.364216 -0.483226
Head 2.072823 -10.903896 7.048481
LeftShoulder -8.797932 33.418909 6.043267
LeftArm 7.352878 70.924922 -79.049903
LeftForeArm -49.557653 -0.000000 41.029483
LeftHand -25.373428 -0.000000 -25.621996
LeftHandThumb1 -26.253704 0.000000 33.147579
RightShoulder -17.185165 -5.745759 -15.241219
RightArm -66.874462 -58.522909 147.349520
RightForeArm 14.144751 -0.000000 48.174216
RightHand -1.099320 -0.000000 24.098747
RightHandThumb1 -24.326973 -0.000000 -32.862282
LeftUpLeg -8.488874 5.075987 4.399863
LeftLeg 1.100535 -0.000000 -0.000000
LeftFoot -12.745801 2.796342 -12.287907
LeftToeBase 10.735387 -0.000000 -0.000000
RightUpLeg -7.628115 -8.954562 -3.539009
RightLeg 3.025524 -0.000000 -0.000000
RightFoot -11.111120 -8.775667 5.147249
RightToeBase 0.729633 -0.000000 -0.000000
237
root 0.707185 32.603278 1.852085 13.423187 4.135121 -0.145427
Spine -12.687374 4.387188 -0.490456
Head 2.053147 -10.975941 7.058601
LeftShoulder -8.874516 33.559065 5.989074
LeftArm 7.329175 70.620945 -79.147237
LeftForeArm -48.899188 -0.000000 41.091631
LeftHand -25.388092 -0.000000 -25.585601
LeftHandThumb1 -26.253704 0.000000 33.147579
RightShoulder -17.245344 -5.836343 -15.163182
RightArm -66.541425 -58.423494 147.012486
RightForeArm 13.977135 -0.000000 48.154076
RightHand -1.264978 -0.000000 23.844160
RightHandThumb1 -24.326973 -0.000000 -32.862282
LeftUpLeg -8.529872 5.063385 4.409069
LeftLeg 1.122328 -0.000000 -0.000000
LeftFoot -12.755363 2.771392 -12.296269
LeftToeBase 10.792968 -0.000000 -0.000000
RightUpLeg -7.649728 -8.934417 -3.528754
RightLeg 3.037132 -0.000000 -0.000000
RightFoot -11.119465 -8.821581 5.179123
RightToeBase 0.746389 -0.000000 -0.000000
238
root 0.707653 32.604042 1.850003 13.444473 4.164363 -0.145025
Spine -12.592227 4.443391 -0.513896
Head 2.024903 -11.076701 7.105163
LeftShoulder -8.981867 33.692434 5.920643
LeftArm 7.535917 70.396862 -78.971622
LeftForeArm -48.416325 -0.000000 41.082126
LeftHand -25.314725 0.000000 -25.542747
LeftHandThumb1 -26.253704 0.000000 33.147579
RightShoulder -17.346086 -5.938604 -15.103482
RightArm -66.140314 -58.322873 146.602782
RightForeArm 13.915872 0.000000 47.955061
RightHand -1.094816 -0.000000 23.730739
RightHandThumb1 -24.326973 -0.000000 -32.862282
LeftUpLeg -8.574388 5.033828 4.412807
LeftLeg 1.151373 -0.000000 -0.000000
LeftFoot -12.761921 2.766474 -12.295206
LeftToeBase 10.790011 -0.000000 -0.000000
RightUpLeg -7.678169 -8.921805 -3.526604
RightLeg 3.055922 -0.000000 -0.000000
RightFoot -11.119165 -8.853187 5.174918
RightToeBase 0.742636 -0.000000 -0.000000
239
root 0.709093 32.604437 1.848137 13.450777 4.185835 -0.139921
Spine -12.485693 4.485224 -0.536424
Head 2.022101 -11.172203 7.130256
LeftShoulder -9.105765 33.835610 5.847750
LeftArm 7.880154 70.214841 -78.654575
LeftForeArm -48.259361 0.000000 41.005924
LeftHand -25.245133 -0.000000 -25.558080
LeftHandThumb1 -26.253704 0.000000 33.147579
RightShoulder -17.407687 -6.025671 -15.063180
RightArm -65.712473 -58.206261 146.128625
RightForeArm 14.145513 -0.000000 47.671233
RightHand -1.010857 0.000000 23.687470
RightHandThumb1 -24.326973 -0.000000 -32.862282
LeftUpLeg -8.603964 5.007107 4.409098
LeftLeg 1.185297 -0.000000 -0.000000
LeftFoot -12.770918 2.772824 -12.309561
LeftToeBase 10.827671 -0.000000 -0.000000
RightUpLeg -7.693941 -8.912346 -3.532465
RightLeg 3.078516 -0.000000 -0.000000
RightFoot -11.125094 -8.876490 5.202626
RightToeBase 0.710464 -0.000000 -0.000000
240
root 0.710126 32.604563 1.846321 13.452464 4.213880 -0.143466
Spine -12.378077 4.504227 -0.541153
Head 2.046061 -11.269346 7.143019
LeftShoulder -9.225863 33.893581 5.748791
LeftArm 7.983408 70.061174 -78.463396
LeftForeArm -48.307277 0.000000 41.002928
LeftHand -25.121491 -0.000000 -25.606171
LeftHandThumb1 -26.253704 0.000000 33.147579
RightShoulder -17.421545 -6.067478 -15.022825
RightArm -65.438366 -58.089939 145.781299
RightForeArm 14.897448 -0.000000 47.278613
RightHand -0.937300 -0.000000 23.830940
RightHandThumb1 -24.326973 -0.000000 -32.862282
LeftUpLeg -8.634241 4.972444 4.416633
LeftLeg 1.227443 -0.000000 -0.000000
LeftFoot -12.788482 2.781917 -12.307370
LeftToeBase 10.800890 -0.000000 -0.000000
RightUpLeg -7.709561 -8.924706 -3.527643
RightLeg 3.110303 -0.000000 -0.000000
RightFoot -11.142389 -8.883486 5.226214
RightToeBase 0.731713 -0.000000 -0.000000
241
root 0.711465 32.604209 1.843875 13.456373 4.240035 -0.143845
Spine -12.264863 4.551868 -0.557363
Head 2.101744 -11.419565 7.136609
LeftShoulder -9.271831 33.882770 5.689831
LeftArm 7.921146 69.974386 -78.386133
LeftForeArm -48.370961 0.000000 41.042322
LeftHand -25.072532 -0.000000 -25.743435
LeftHandThumb1 -26.253704 0.000000 33.147579
RightShoulder -17.473679 -6.122279 -14.954985
RightArm -65.348868 -58.078494 145.551579
RightForeArm 15.762736 -0.000000 46.983243
RightHand -0.832920 0.000000 23.712850
RightHandThumb1 -24.326973 -0.000000 -32.862282
LeftUpLeg -8.658971 4.914004 4.423878
LeftLeg 1.254386 -0.000000 -0.000000
LeftFoot -12.804785 2.818268 -12.282010
LeftToeBase 10.760837 -0.000000 -0.000000
RightUpLeg -7.725129 -8.950555 -3.523947
RightLeg 3.133639 -0.000000 -0.000000
RightFoot -11.157348 -8.867359 5.241222
RightToeBase 0.734107 -0.000000 -0.000000
242
root 0.712807 32.603606 1.841806 13.456238 4.264262 -0.153257
Spine -12.155790 4.601493 -0.567629
Head 2.186451 -11.567994 7.134113
LeftShoulder -9.260632 33.818140 5.686372
LeftArm 7.777020 69.983504 -78.411418
LeftForeArm -48.377915 -0.000000 41.081519
LeftHand -25.135180 0.000000 -25.839289
LeftHandThumb1 -26.253704 0.000000 33.147579
RightShoulder -17.485196 -6.180197 -14.860319
RightArm -65.318826 -58.103535 145.303880
RightForeArm 16.501035 -0.000000 46.836322
RightHand -0.898518 -0.000000 23.706055
RightHandThumb1 -24.326973 -0.000000 -32.862282
LeftUpLeg -8.677142 4.856819 4.444926
LeftLeg 1.277189 -0.000000 -0.000000
LeftFoot -12.816203 2.829499 -12.226946
LeftToeBase 10.752420 -0.000000 -0.000000
RightUpLeg -7.738148 -8.965428 -3.512148
RightLeg 3.159193 -0.000000 -0.000000
RightFoot -11.172161 -8.869641 5.253713
RightToeBase 0.759894 -0.000000 -0.000000
243
root 0.715040 32.603269 1.837694 13.458469 4.291825 -0.153118
Spine -12.049896 4.665309 -0.584064
Head 2.307450 -11.739562 7.104121
LeftShoulder -9.137191 33.739764 5.735895
LeftArm 7.626464 70.042501 -78.464314
LeftForeArm -48.456625 -0.000000 41.112375
LeftHand -25.196661 -0.000000 -25.880671
LeftHandThumb1 -26.253704 0.000000 33.147579
RightShoulder -17.476016 -6.171670 -14.805583
RightArm -65.490955 -58.108658 145.233369
RightForeArm 17.221070 -0.000000 46.840809
RightHand -0.889984 -0.000000 23.382191
RightHandThumb1 -24.326973 -0.000000 -32.862282
LeftUpLeg -8.702148 4.796911 4.448347
LeftLeg 1.307173 -0.000000 -0.000000
LeftFoot -12.854794 2.869522 -12.247987
LeftToeBase 10.798788 -0.000000 -0.000000
RightUpLeg -7.754441 -8.989699 -3.510912
RightLeg 3.184386 -0.000000 -0.000000
RightFoot -11.175080 -8.871320 5.252135
RightToeBase 0.736035 -0.000000 -0.000000
